<svg width="128" height="44" viewBox="0 0 128 44" fill="none" xmlns="http://www.w3.org/2000/svg">
<path d="M3.968 25.8L1.152 27.752C1.64267 28.776 2.304 29.7253 3.136 30.6C3.968 31.4747 4.93867 32.1787 6.048 32.712C7.17867 33.224 8.40533 33.48 9.728 33.48C10.688 33.48 11.6053 33.32 12.48 33C13.376 32.7013 14.176 32.2747 14.88 31.72C15.584 31.144 16.1387 30.44 16.544 29.608C16.9493 28.776 17.152 27.8373 17.152 26.792C17.152 25.8107 16.9813 24.9573 16.64 24.232C16.32 23.5067 15.8827 22.8773 15.328 22.344C14.7733 21.7893 14.1547 21.3307 13.472 20.968C12.8107 20.6053 12.1493 20.3067 11.488 20.072C10.2933 19.6453 9.32267 19.2293 8.576 18.824C7.82933 18.4187 7.27467 17.992 6.912 17.544C6.57067 17.0747 6.4 16.552 6.4 15.976C6.4 15.336 6.64533 14.7813 7.136 14.312C7.62667 13.8213 8.39467 13.576 9.44 13.576C10.1867 13.576 10.8373 13.7253 11.392 14.024C11.968 14.3013 12.4693 14.6853 12.896 15.176C13.3227 15.6453 13.6747 16.1573 13.952 16.712L17.024 14.984C16.64 14.1947 16.1067 13.4373 15.424 12.712C14.7627 11.9867 13.9413 11.3893 12.96 10.92C11.9787 10.4507 10.8267 10.216 9.504 10.216C8.16 10.216 6.95467 10.472 5.888 10.984C4.84267 11.4747 4.01067 12.1787 3.392 13.096C2.77333 13.992 2.464 15.0373 2.464 16.232C2.464 17.2773 2.66667 18.1733 3.072 18.92C3.47733 19.6453 3.98933 20.264 4.608 20.776C5.22667 21.2667 5.87733 21.6827 6.56 22.024C7.24267 22.344 7.86133 22.6 8.416 22.792C9.35467 23.1333 10.176 23.4853 10.88 23.848C11.6053 24.1893 12.1707 24.616 12.576 25.128C12.9813 25.6187 13.184 26.28 13.184 27.112C13.184 27.9867 12.864 28.7013 12.224 29.256C11.584 29.8107 10.752 30.088 9.728 30.088C8.87467 30.088 8.10667 29.9173 7.424 29.576C6.74133 29.2133 6.112 28.712 5.536 28.072C4.98133 27.4107 4.45867 26.6533 3.968 25.8ZM21.9232 25.64C21.9232 24.7227 22.1259 23.912 22.5312 23.208C22.9366 22.504 23.4806 21.9493 24.1632 21.544C24.8672 21.1387 25.6459 20.936 26.4992 20.936C27.1819 20.936 27.8432 21.0427 28.4832 21.256C29.1232 21.4693 29.6886 21.768 30.1792 22.152C30.6912 22.5147 31.0646 22.9413 31.2992 23.432V19.624C30.7872 19.112 30.0939 18.7067 29.2192 18.408C28.3446 18.1093 27.3846 17.96 26.3392 17.96C24.8246 17.96 23.4592 18.2907 22.2432 18.952C21.0486 19.592 20.0992 20.488 19.3952 21.64C18.7126 22.792 18.3712 24.1253 18.3712 25.64C18.3712 27.1333 18.7126 28.4667 19.3952 29.64C20.0992 30.792 21.0486 31.6987 22.2432 32.36C23.4592 33 24.8246 33.32 26.3392 33.32C27.3846 33.32 28.3446 33.1707 29.2192 32.872C30.0939 32.5733 30.7872 32.168 31.2992 31.656V27.848C31.0646 28.3173 30.7019 28.744 30.2112 29.128C29.7206 29.512 29.1552 29.8107 28.5152 30.024C27.8752 30.2373 27.2032 30.344 26.4992 30.344C25.6459 30.344 24.8672 30.1413 24.1632 29.736C23.4806 29.3307 22.9366 28.7867 22.5312 28.104C22.1259 27.4 21.9232 26.5787 21.9232 25.64ZM33.8713 12.424C33.8713 13 34.0846 13.5013 34.5113 13.928C34.9593 14.3333 35.4713 14.536 36.0473 14.536C36.6659 14.536 37.1779 14.3333 37.5833 13.928C38.0099 13.5013 38.2233 13 38.2233 12.424C38.2233 11.8267 38.0099 11.3253 37.5833 10.92C37.1779 10.5147 36.6659 10.312 36.0473 10.312C35.4713 10.312 34.9593 10.5147 34.5113 10.92C34.0846 11.3253 33.8713 11.8267 33.8713 12.424ZM34.3513 18.28V33H37.7433V18.28H34.3513ZM44.7392 8.04H41.2512V33H44.7392V8.04ZM56.9312 25.64C56.9312 24.0187 56.6006 22.6427 55.9393 21.512C55.2779 20.36 54.4033 19.4853 53.3153 18.888C52.2273 18.2693 51.0433 17.96 49.7633 17.96C48.5473 17.96 47.4592 18.2693 46.4992 18.888C45.5606 19.5067 44.8246 20.392 44.2912 21.544C43.7579 22.6747 43.4912 24.04 43.4912 25.64C43.4912 27.2187 43.7579 28.584 44.2912 29.736C44.8246 30.888 45.5606 31.7733 46.4992 32.392C47.4592 33.0107 48.5473 33.32 49.7633 33.32C51.0433 33.32 52.2273 33.0213 53.3153 32.424C54.4033 31.8053 55.2779 30.92 55.9393 29.768C56.6006 28.616 56.9312 27.24 56.9312 25.64ZM53.3472 25.64C53.3472 26.6213 53.1446 27.464 52.7393 28.168C52.3339 28.872 51.7899 29.4053 51.1073 29.768C50.4459 30.1307 49.7099 30.312 48.8993 30.312C48.2379 30.312 47.5872 30.1307 46.9472 29.768C46.3072 29.4053 45.7739 28.8827 45.3472 28.2C44.9419 27.496 44.7392 26.6427 44.7392 25.64C44.7392 24.6373 44.9419 23.7947 45.3472 23.112C45.7739 22.408 46.3072 21.8747 46.9472 21.512C47.5872 21.1493 48.2379 20.968 48.8993 20.968C49.7099 20.968 50.4459 21.1493 51.1073 21.512C51.7899 21.8747 52.3339 22.408 52.7393 23.112C53.1446 23.816 53.3472 24.6587 53.3472 25.64ZM65.503 33.32C67.2097 33.32 68.671 32.9893 69.887 32.328C71.103 31.6667 72.095 30.6747 72.863 29.352L69.887 28.136C69.4177 28.9253 68.831 29.512 68.127 29.896C67.423 30.28 66.6017 30.472 65.663 30.472C64.767 30.472 63.999 30.28 63.359 29.896C62.7403 29.512 62.271 28.9573 61.951 28.232C61.631 27.4853 61.471 26.5787 61.471 25.512C61.4923 24.4453 61.663 23.5493 61.983 22.824C62.303 22.0987 62.7723 21.544 63.391 21.16C64.0097 20.776 64.7563 20.584 65.631 20.584C66.3563 20.584 66.9857 20.744 67.519 21.064C68.0737 21.384 68.5003 21.832 68.799 22.408C69.119 22.984 69.279 23.6667 69.279 24.456C69.279 24.6053 69.2363 24.7973 69.151 25.032C69.087 25.2453 69.023 25.416 68.959 25.544L70.015 24.072H60.031V26.44H72.959C72.9803 26.3547 72.991 26.216 72.991 26.024C73.0123 25.832 73.023 25.6507 73.023 25.48C73.023 23.9013 72.7243 22.5573 72.127 21.448C71.551 20.3173 70.719 19.4533 69.631 18.856C68.543 18.2587 67.2203 17.96 65.663 17.96C64.1057 17.96 62.751 18.28 61.599 18.92C60.447 19.5387 59.551 20.424 58.911 21.576C58.2923 22.728 57.983 24.0827 57.983 25.64C57.983 27.176 58.2923 28.52 58.911 29.672C59.5297 30.824 60.4043 31.72 61.535 32.36C62.687 33 64.0097 33.32 65.503 33.32ZM78.6258 18.28H75.2018V33H78.6258V18.28ZM83.0098 21.96L84.6738 19.048C84.3538 18.6427 83.9591 18.3653 83.4898 18.216C83.0204 18.0453 82.5191 17.96 81.9858 17.96C81.2391 17.96 80.5138 18.2267 79.8098 18.76C79.1271 19.2933 78.5618 20.0187 78.1138 20.936C77.6871 21.832 77.4738 22.8667 77.4738 24.04L78.6258 24.712C78.6258 24.008 78.7004 23.4 78.8498 22.888C79.0204 22.3547 79.2871 21.9387 79.6498 21.64C80.0124 21.3413 80.4818 21.192 81.0578 21.192C81.4844 21.192 81.8364 21.256 82.1138 21.384C82.3911 21.512 82.6898 21.704 83.0098 21.96ZM85.7975 12.424C85.7975 13 86.0108 13.5013 86.4375 13.928C86.8855 14.3333 87.3975 14.536 87.9735 14.536C88.5922 14.536 89.1042 14.3333 89.5095 13.928C89.9362 13.5013 90.1495 13 90.1495 12.424C90.1495 11.8267 89.9362 11.3253 89.5095 10.92C89.1042 10.5147 88.5922 10.312 87.9735 10.312C87.3975 10.312 86.8855 10.5147 86.4375 10.92C86.0108 11.3253 85.7975 11.8267 85.7975 12.424ZM86.2775 18.28V33H89.6695V18.28H86.2775ZM95.4815 28.424C95.4815 27.9547 95.5882 27.56 95.8015 27.24C96.0362 26.92 96.3775 26.6747 96.8255 26.504C97.2735 26.312 97.8602 26.216 98.5855 26.216C99.4175 26.216 100.207 26.3227 100.954 26.536C101.7 26.7493 102.404 27.0907 103.066 27.56V25.8C102.874 25.5653 102.543 25.3093 102.074 25.032C101.604 24.7333 101.007 24.4773 100.282 24.264C99.5775 24.0507 98.7348 23.944 97.7535 23.944C95.9188 23.944 94.5002 24.3707 93.4975 25.224C92.4948 26.056 91.9935 27.1867 91.9935 28.616C91.9935 29.6187 92.2282 30.472 92.6975 31.176C93.1668 31.88 93.7962 32.4133 94.5855 32.776C95.3748 33.1387 96.2282 33.32 97.1455 33.32C97.9988 33.32 98.8308 33.1707 99.6415 32.872C100.474 32.552 101.156 32.0827 101.69 31.464C102.244 30.824 102.522 30.0347 102.522 29.096L102.01 27.176C102.01 27.9013 101.828 28.5413 101.466 29.096C101.124 29.6293 100.666 30.0347 100.09 30.312C99.5348 30.5893 98.9162 30.728 98.2335 30.728C97.7002 30.728 97.2202 30.6427 96.7935 30.472C96.3882 30.3013 96.0682 30.0453 95.8335 29.704C95.5988 29.3413 95.4815 28.9147 95.4815 28.424ZM94.3935 22.12C94.6068 21.9707 94.9268 21.7893 95.3535 21.576C95.8015 21.3413 96.3242 21.1493 96.9215 21C97.5402 20.8293 98.1908 20.744 98.8735 20.744C99.3215 20.744 99.7375 20.7867 100.122 20.872C100.506 20.9573 100.836 21.096 101.114 21.288C101.391 21.48 101.604 21.7253 101.754 22.024C101.924 22.3227 102.01 22.7067 102.01 23.176V33H105.402V22.504C105.402 21.5227 105.135 20.7013 104.602 20.04C104.068 19.3573 103.332 18.8347 102.394 18.472C101.476 18.1093 100.41 17.928 99.1935 17.928C97.8282 17.928 96.6122 18.12 95.5455 18.504C94.5002 18.888 93.6468 19.2827 92.9855 19.688L94.3935 22.12Z" fill="#314968"/>
<path d="M112 21.9843C112 22.9009 112.743 23.6438 113.659 23.6438H126.341C127.257 23.6438 128 22.9009 128 21.9843C128 21.0678 127.257 20.3249 126.341 20.3249H113.659C112.743 20.3249 112 21.0678 112 21.9843ZM120 14C119.019 14 118.224 14.7952 118.224 15.776V28.224C118.224 29.2048 119.019 30 120 30C120.981 30 121.776 29.2048 121.776 28.224V15.776C121.776 14.7952 120.981 14 120 14Z" fill="#000AF4"/>
</svg>
